<svg xmlns="http://www.w3.org/2000/svg" width="16" height="16" viewBox="0 0 16 16" fill="none">
  <path d="M2.072 14.9845C1.512 14.9688 1.088 14.6402 1.048 14.1003C1.024 13.7716 1 13.3256 1 12.7153C1 12.105 1.016 11.6589 1.048 11.3303C1.096 10.7904 1.52 10.4618 2.072 10.4461C2.312 10.4383 2.624 10.4383 3 10.4383C3.376 10.4383 3.68 10.4383 3.928 10.4461C4.488 10.4618 4.912 10.7904 4.952 11.3303C4.976 11.6589 5 12.105 5 12.7153C5 13.3256 4.976 13.7716 4.952 14.1003C4.904 14.6402 4.48 14.9688 3.928 14.9845C3.688 14.9923 3.376 14.9923 3 14.9923C2.624 14.9923 2.312 14.9923 2.072 14.9845ZM12.896 14.9845C12.248 14.961 11.792 14.515 11.752 13.8733C11.712 13.2161 11.672 12.1441 11.672 10.4305C11.672 8.71685 11.712 7.64487 11.752 6.98759C11.792 6.35379 12.248 5.90778 12.896 5.8843C13.112 5.87648 13.368 5.86865 13.664 5.86865C13.968 5.86865 14.216 5.87648 14.432 5.8843C15.08 5.90778 15.536 6.35379 15.576 6.99541C15.616 7.65269 15.656 8.72468 15.656 10.4383C15.656 12.1519 15.616 13.2239 15.576 13.8812C15.536 14.515 15.08 14.961 14.432 14.9845C14.216 14.9923 13.96 15.0001 13.664 15.0001C13.368 15.0001 13.104 14.9923 12.896 14.9845ZM7.512 14.9845C6.888 14.9688 6.432 14.5697 6.392 13.9594C6.36 13.4821 6.328 12.7779 6.328 11.7372C6.328 10.6965 6.352 9.99228 6.392 9.51497C6.44 8.90465 6.888 8.50559 7.512 8.48994C7.736 8.48211 8.008 8.48211 8.328 8.48211C8.648 8.48211 8.92 8.48994 9.144 8.48994C9.768 8.50559 10.224 8.90465 10.264 9.51497C10.296 9.99228 10.328 10.6965 10.328 11.7372C10.328 12.7779 10.304 13.4821 10.264 13.9594C10.216 14.5697 9.768 14.9688 9.144 14.9845C8.92 14.9923 8.648 14.9923 8.328 14.9923C8.008 15.0001 7.736 14.9923 7.512 14.9845Z" fill="#343621"/>
  <path d="M11.0824 2.24365C10.853 1.57055 10.3943 1.12182 9.70609 0.841369V0H9.13262V0.785277H8.90323C8.2724 0.785277 7.75627 1.00964 7.29749 1.45837L7.0681 1.68274L6.26523 1.40228C6.09319 1.34619 5.92115 1.2901 5.69176 1.2901C5.34767 1.2901 5.00358 1.40228 4.71685 1.62665C4.37276 1.85101 4.20072 2.13147 4.08602 2.41192C3.97133 2.80456 3.97133 3.14111 4.08602 3.53375C4.25806 3.92639 4.43011 4.20684 4.71685 4.37512C4.48745 5.21649 4.6595 5.94567 5.29032 6.56267C5.7491 7.0114 6.26523 7.23577 6.89606 7.23577C7.1828 7.23577 7.35484 7.23577 7.52688 7.17968C7.87097 7.62841 8.32975 7.90886 8.90323 7.90886C9.07527 7.90886 9.30466 7.90886 9.4767 7.85277C9.82079 7.74059 10.0502 7.51622 10.2796 7.23577C10.509 6.89922 10.6237 6.61877 10.6237 6.28222C10.6237 6.05785 10.6237 5.88958 10.5663 5.72131L10.2796 4.82385L10.6237 4.59948C11.0824 4.15075 11.3118 3.53375 11.2545 2.86065H12V2.24365H11.0824ZM5.51971 3.53375C5.17563 3.36547 5.06093 3.14111 5.17563 2.80456C5.29032 2.46801 5.51971 2.35583 5.8638 2.46801L7.69892 3.14111C6.78136 3.58984 6.09319 3.70202 5.51971 3.53375ZM9.13262 6.67486C8.78853 6.78704 8.55914 6.67486 8.3871 6.33831C8.21505 5.7774 8.32975 5.1043 8.78853 4.20684L9.4767 5.94567C9.5914 6.33831 9.4767 6.56267 9.13262 6.67486ZM9.82079 3.70202L9.4767 2.80456V2.74847L9.30466 2.5802H9.24731L8.32975 2.24365C8.55914 2.07538 8.78853 1.96319 9.07527 1.96319C9.36201 1.96319 9.64875 2.07538 9.87814 2.29974C10.1075 2.52411 10.2222 2.74847 10.2222 3.02893C10.1075 3.1972 9.99283 3.47766 9.82079 3.70202Z" fill="#343621"/>
</svg>