<svg 
  width="28" 
  height="28" 
  viewBox="0 0 28 28" 
  fill="none" 
  xmlns="http://www.w3.org/2000/svg"
>
  <path d="M6.2207 16.3458H7.46279C7.50419 16.3457 7.54387 16.3292 7.57315 16.2999C7.60243 16.2706 7.61893 16.2309 7.61904 16.1895V11.20326H17.9436V12.6212C17.9436 12.6583 17.9557 12.6933 17.979 12.7228C17.9922 12.7396 18.0086 12.7536 18.0273 12.7641C18.0459 12.7745 18.0664 12.7812 18.0876 12.7837C18.1088 12.7862 18.1303 12.7845 18.1508 12.7787C18.1714 12.7729 18.1906 12.7632 18.2074 12.7499L21.0061 10.55284C21.0903 10.45534 21.077 10.35159 21.0061 10.29493L18.2074 8.09951C18.1831 8.08086 18.154 8.06935 18.1235 8.06627C18.093 8.06318 18.0623 8.06866 18.0347 8.08207C18.0072 8.09548 17.9839 8.1163 17.9675 8.14219C17.9511 8.16809 17.9423 8.19803 17.942 8.22868V9.64659H7.46445C7.09306 9.64748 6.73716 9.79555 6.47474 10.05836C6.21232 10.32117 6.06478 10.67728 6.06445 11.04868V16.1895C6.06445 16.2753 6.13487 16.3458 6.2207 16.3458ZM20.9082 18.7833H19.6661C19.6247 18.7834 19.585 18.7999 19.5558 18.8291C19.5265 18.8584 19.51 18.8981 19.5099 18.9395V23.9258H9.18529V22.5078C9.18568 22.4771 9.17734 22.4469 9.16122 22.4207C9.14511 22.3944 9.12189 22.3734 9.09427 22.3598C9.06665 22.3463 9.03575 22.3409 9.00517 22.3442C8.9746 22.3476 8.94559 22.3595 8.92154 22.3787L6.12279 24.5766C6.03862 24.6745 6.05195 24.7778 6.12279 24.8345L8.92154 27.0299C8.94585 27.0487 8.97492 27.0603 9.00548 27.0635C9.03603 27.0666 9.06686 27.0612 9.09449 27.0477C9.12211 27.0343 9.14545 27.0134 9.16186 26.9875C9.17827 26.9615 9.1871 26.9315 9.18737 26.9008V25.4828H19.6674C20.439 25.4828 21.0678 24.8537 21.0678 24.0803V18.9395C21.0662 18.8979 21.0487 18.8586 21.0189 18.8295C20.9892 18.8004 20.9494 18.7839 20.9078 18.7833H20.9082Z" fill="#333333"/>
</svg> 