<?xml version="1.0" encoding="utf-8"?>
<svg xmlns="http://www.w3.org/2000/svg" viewBox="988.2353 713.2517 423.5294 373.4895" width="100%" height="100%" preserveAspectRatio="none"><svg xmlns="http://www.w3.org/2000/svg" width="2400" height="1800" color-interpolation-filters="sRGB" version="1.0" viewBox="0 0 340 250" id="object-0" transform="matrix(7.058823529411765, 0, 0, 7.058823529411765, 0, 17.647058823529406)"><g class="imageSVG isNoFont" transform="translate(140 98.544)"><path fill="none" d="M0 0h60v52.911H0z" class="image-rect"/><svg width="60" height="52.911" class="image-svg-svg primary" filter="url(#a)" style="overflow:visible"><svg xmlns="http://www.w3.org/2000/svg" fill-rule="evenodd" clip-rule="evenodd" viewBox="50.917 94.911 744.827 656.829"><path d="M63.39 545.05c74.11-46.09 134.7-119.65 179.29-157.93l-47.37-54.52C62.03 178.35 311.98 9.43 412.09 147.96l40.96 47.16 40.12-46.16C599.62 1.64 837.15 186.48 709.91 333.6l-47 54.07c186.69 45.55 181.1 364.07-45.43 364.07H257.39c-8.09 0-15.34-3.81-20.03-9.7-95.03-105.06-174.3-153.15-174.51-153.27-16.31-10.12-15.68-35.53.54-43.72m500.04-111.5v267.02h54.05c176.81 0 163.15-267.02 0-267.02zm-51.17 267.02V433.55h-70.2v267.02zm-121.38 0V433.55h-70.2v267.02zm-121.37 0V433.55h-.91c-60.42 65.68-114.73 109.6-147.24 133.5 32.51 23.86 86.82 67.84 147.24 133.52zm369.35-222.52c22.09 0 39.97 17.88 39.97 39.97 0 22.08-17.88 39.96-39.97 39.96-22.08 0-39.96-17.88-39.96-39.96 0-22.09 17.88-39.97 39.96-39.97M486.82 234l121.05 139.29 63.5-73.04c73.01-84.41-39.67-207.93-139.69-117.91zm-180.7 148.38h242.12c-58.64-67.48-117.42-135.6-176.18-202.76-76.79-88.66-218.61 26.47-138.2 119.63z"/></svg></svg><defs><filter id="a"><feColorMatrix class="icon-feColorMatrix" values="0 0 0 0 0.96875 0 0 0 0 0.80078125 0 0 0 0 0.05859375 0 0 0 1 0"/></filter></defs></g></svg></svg>