<svg xmlns="http://www.w3.org/2000/svg" width="16" height="16" viewBox="50.917 94.911 744.827 656.829">
  <path fill="#999" d="M63.39 545.05c74.11-46.09 134.7-119.65 179.29-157.93l-47.37-54.52c-133.28-154.25 116.67-323.17 216.78-184.64l40.96 47.16 40.12-46.16c106.45-147.32 343.98 37.52 216.74 184.64l-47 54.07c186.69 45.55 181.1 364.07-45.43 364.07H257.39c-8.09 0-15.34-3.81-20.03-9.7-95.03-105.06-174.3-153.15-174.51-153.27-16.31-10.12-15.68-35.53.54-43.72zm500.04-111.5v267.02h54.05c176.81 0 163.15-267.02 0-267.02h-54.05zm-51.17 267.02V433.55h-70.2v267.02h70.2zm-121.38 0V433.55h-70.2v267.02h70.2zm-121.37 0V433.55h-.91c-60.42 65.68-114.73 109.6-147.24 133.5 32.51 23.86 86.82 67.84 147.24 133.52h.91zm369.35-222.52c22.09 0 39.97 17.88 39.97 39.97 0 22.08-17.88 39.96-39.97 39.96-22.08 0-39.96-17.88-39.96-39.96 0-22.09 17.88-39.97 39.96-39.97zM486.82 234l121.05 139.29 63.5-73.04c73.01-84.41-39.67-207.93-139.69-117.91L486.82 234zm-180.7 148.38h242.12c-58.64-67.48-117.42-135.6-176.18-202.76-76.79-88.66-218.61 26.47-138.2 119.63l72.26 83.13z"/>
</svg>